<svg width="40" height="40" viewBox="0 0 40 40" fill="none" xmlns="http://www.w3.org/2000/svg">
<rect width="40" height="40" rx="20" fill="#5CA4DF"/>
<path d="M11 21C11 23.3869 11.9482 25.6761 13.636 27.364C15.3239 29.0518 17.6131 30 20 30C20 27.6131 19.0518 25.3239 17.364 23.636C15.6761 21.9482 13.3869 21 11 21ZM13.44 23.44C15.35 24.15 16.85 25.65 17.56 27.56C15.65 26.85 14.15 25.35 13.44 23.44ZM20 30C22.3869 30 24.6761 29.0518 26.364 27.364C28.0518 25.6761 29 23.3869 29 21C26.6131 21 24.3239 21.9482 22.636 23.636C20.9482 25.3239 20 27.6131 20 30ZM22.42 27.57C23.11 25.64 24.64 24.11 26.57 23.42C25.86 25.34 24.34 26.86 22.42 27.57ZM20 22C21.5913 22 23.1174 21.3679 24.2426 20.2426C25.3679 19.1174 26 17.5913 26 16V11C25.26 11 24.53 11.12 23.84 11.39C23.29 11.62 22.8 11.96 22.39 12.39L20 10L17.61 12.39C17.2 11.96 16.71 11.62 16.16 11.39C15.47 11.12 14.74 11 14 11V16C14 17.5913 14.6321 19.1174 15.7574 20.2426C16.8826 21.3679 18.4087 22 20 22ZM16 13.61L17.57 15.26L20 12.83L22.43 15.26L24 13.61V16C24 17.0609 23.5786 18.0783 22.8284 18.8284C22.0783 19.5786 21.0609 20 20 20C18.9391 20 17.9217 19.5786 17.1716 18.8284C16.4214 18.0783 16 17.0609 16 16V13.61Z" fill="white"/>
</svg>
