<svg width="40" height="40" viewBox="0 0 40 40" fill="none" xmlns="http://www.w3.org/2000/svg">
<rect width="40" height="40" rx="20" fill="#5CA4DF"/>
<path d="M17.88 17.88C19.05 16.71 20.95 16.71 22.12 17.88C23.29 19.05 23.29 20.95 22.12 22.12C20.95 23.29 19.05 23.29 17.88 22.12C16.71 20.95 16.71 19.05 17.88 17.88ZM16.46 16.46C14.5 18.42 14.5 21.58 16.46 23.54C18.42 25.5 21.58 25.5 23.54 23.54C25.5 21.58 25.5 18.42 23.54 16.46C21.58 14.5 18.42 14.5 16.46 16.46ZM27.47 12.55C27.47 12.55 26.5 12.67 25.43 13.37C25.28 12.32 24.78 11.27 23.93 10.42C22.68 11.67 22.53 13.22 22.83 14.34C24.22 14.7 25.3 15.78 25.66 17.17C26.78 17.47 28.34 17.32 29.58 16.07C28.74 15.23 27.71 14.74 26.68 14.58C27.07 14 27.38 13.33 27.47 12.55ZM12.53 27.45C12.53 27.45 13.5 27.33 14.57 26.64C14.72 27.68 15.22 28.73 16.07 29.58C17.32 28.34 17.47 26.78 17.17 25.66C15.79 25.3 14.7 24.22 14.34 22.83C13.22 22.53 11.67 22.68 10.42 23.93C11.26 24.77 12.29 25.27 13.32 25.42C12.93 26 12.62 26.68 12.53 27.45Z" fill="white"/>
</svg>
