<svg width="80" height="80" viewBox="0 0 80 80" fill="none" xmlns="http://www.w3.org/2000/svg">
<rect width="80" height="80" fill="#F2F2F2"/>
<path d="M40 20C42.6522 20 45.1957 21.0536 47.0711 22.9289C48.9464 24.8043 50 27.3478 50 30C50 32.6522 48.9464 35.1957 47.0711 37.0711C45.1957 38.9464 42.6522 40 40 40C37.3478 40 34.8043 38.9464 32.9289 37.0711C31.0536 35.1957 30 32.6522 30 30C30 27.3478 31.0536 24.8043 32.9289 22.9289C34.8043 21.0536 37.3478 20 40 20ZM40 25C38.6739 25 37.4021 25.5268 36.4645 26.4645C35.5268 27.4021 35 28.6739 35 30C35 31.3261 35.5268 32.5979 36.4645 33.5355C37.4021 34.4732 38.6739 35 40 35C41.3261 35 42.5979 34.4732 43.5355 33.5355C44.4732 32.5979 45 31.3261 45 30C45 28.6739 44.4732 27.4021 43.5355 26.4645C42.5979 25.5268 41.3261 25 40 25ZM40 42.5C46.675 42.5 60 45.825 60 52.5V60H20V52.5C20 45.825 33.325 42.5 40 42.5ZM40 47.25C32.575 47.25 24.75 50.9 24.75 52.5V55.25H55.25V52.5C55.25 50.9 47.425 47.25 40 47.25Z" fill="#D6D6D6"/>
</svg>
