<svg width="40" height="40" viewBox="0 0 40 40" fill="none" xmlns="http://www.w3.org/2000/svg">
<rect width="40" height="40" rx="20" fill="#5CA4DF"/>
<path d="M23.75 27.13C22.92 27.13 22.25 26.29 22.25 25.25C22.25 24.22 22.92 23.38 23.75 23.38C24.58 23.38 25.25 24.22 25.25 25.25C25.25 26.29 24.58 27.13 23.75 27.13ZM20 19.25C18.76 19.25 17.75 18.41 17.75 17.38C17.75 16.34 18.76 15.5 20 15.5C21.24 15.5 22.25 16.34 22.25 17.38C22.25 18.41 21.24 19.25 20 19.25ZM16.25 27.13C15.42 27.13 14.75 26.29 14.75 25.25C14.75 24.22 15.42 23.38 16.25 23.38C17.08 23.38 17.75 24.22 17.75 25.25C17.75 26.29 17.08 27.13 16.25 27.13ZM20 16.25C20.41 16.25 20.75 16.59 20.75 17C20.75 17.41 20.41 17.75 20 17.75C19.59 17.75 19.25 17.41 19.25 17C19.25 16.59 19.59 16.25 20 16.25ZM26.75 20C26.43 20 26.12 20.07 25.84 20.2C25.36 19.59 24.71 19.07 23.93 18.67C24.5 17.87 24.84 16.9 24.84 15.85C24.84 15.83 24.84 15.81 24.84 15.79C25.93 15.56 26.75 14.59 26.75 13.42C26.75 12.09 25.66 11 24.33 11C23.64 11 23 11.29 22.58 11.75C21.83 11.28 20.95 11 20 11C19.05 11 18.16 11.28 17.42 11.75C17 11.29 16.36 11 15.67 11C14.34 11 13.25 12.09 13.25 13.42C13.25 14.58 14.07 15.55 15.15 15.79C15.15 15.81 15.15 15.83 15.15 15.85C15.15 16.9 15.5 17.88 16.06 18.67C15.29 19.07 14.64 19.59 14.16 20.2C13.88 20.07 13.57 20 13.25 20C12 20 11 21 11 22.25C11 23.5 12 24.5 13.25 24.5C13.27 24.5 13.29 24.5 13.31 24.5C13.27 24.74 13.25 25 13.25 25.25C13.25 27.32 14.59 29 16.25 29C17.26 29 18.15 28.37 18.7 27.41C19.12 27.47 19.55 27.5 20 27.5C20.45 27.5 20.88 27.47 21.3 27.41C21.85 28.37 22.74 29 23.75 29C25.41 29 26.75 27.32 26.75 25.25C26.75 25 26.73 24.74 26.69 24.5C26.71 24.5 26.73 24.5 26.75 24.5C28 24.5 29 23.5 29 22.25C29 21 28 20 26.75 20Z" fill="white"/>
</svg>
